<svg width="16" height="16" viewBox="0 0 16 16" fill="none" xmlns="http://www.w3.org/2000/svg">
<rect x="1" y="1" width="14" height="13" rx="6.5" fill="#FF0000"/>
<path d="M8 0.25C12.2812 0.25 15.75 3.71875 15.75 8C15.75 12.2812 12.2812 15.75 8 15.75C3.71875 15.75 0.25 12.2812 0.25 8C0.25 3.71875 3.71875 0.25 8 0.25ZM11.7812 10.0625L9.75 8L11.7812 5.96875C11.9375 5.84375 11.9375 5.59375 11.7812 5.4375L10.5625 4.21875C10.4062 4.0625 10.1562 4.0625 10.0312 4.21875L8 6.25L5.96875 4.21875C5.8125 4.0625 5.5625 4.0625 5.4375 4.21875L4.1875 5.4375C4.03125 5.59375 4.03125 5.84375 4.1875 5.96875L6.25 8L4.1875 10.0312C4.03125 10.1875 4.03125 10.4375 4.1875 10.5625L5.40625 11.8125C5.5625 11.9688 5.8125 11.9688 5.9375 11.8125L8 9.75L10.0312 11.8125C10.1562 11.9688 10.4062 11.9688 10.5625 11.8125L11.7812 10.5938C11.9375 10.4375 11.9375 10.1875 11.7812 10.0625Z" fill="#1351B4"/>
</svg>
