<svg width="15" height="18" viewBox="0 0 15 18" fill="none" xmlns="http://www.w3.org/2000/svg">
<path id="Vector" d="M7.5 8.57143C9.86719 8.57143 11.7857 6.6529 11.7857 4.28571C11.7857 1.91853 9.86719 0 7.5 0C5.13281 0 3.21429 1.91853 3.21429 4.28571C3.21429 6.6529 5.13281 8.57143 7.5 8.57143ZM10.5 9.64286H9.94085C9.19754 9.98438 8.37054 10.1786 7.5 10.1786C6.62946 10.1786 5.8058 9.98438 5.05915 9.64286H4.5C2.01562 9.64286 0 11.6585 0 14.1429V15.5357C0 16.423 0.719866 17.1429 1.60714 17.1429H13.3929C14.2801 17.1429 15 16.423 15 15.5357V14.1429C15 11.6585 12.9844 9.64286 10.5 9.64286Z" fill="white"/>
</svg>
