<svg xmlns="http://www.w3.org/2000/svg" width="20" height="23" viewBox="0 0 20 23" version="1.1"><path d="" stroke="none" fill="#1854b4" fill-rule="evenodd"/><path d="M 4.455 6.455 C -0.506 11.415, 3.009 20, 10 20 C 11.948 20, 13.998 19.093, 15.545 17.545 C 17.093 15.998, 18 13.948, 18 12 C 18 10.052, 17.093 8.002, 15.545 6.455 C 13.998 4.907, 11.948 4, 10 4 C 8.052 4, 6.002 4.907, 4.455 6.455 M 10 12 C 10 17.111, 11.245 18.355, 13.800 15.800 C 16.392 13.208, 14.628 7, 11.300 7 C 10.407 7, 10 8.564, 10 12" stroke="none" fill="#1454b4" fill-rule="evenodd"/></svg>