<?xml version="1.0" encoding="UTF-8"?>
<svg xmlns="http://www.w3.org/2000/svg" xmlns:xlink="http://www.w3.org/1999/xlink" width="100px" height="34px" viewBox="0 0 100 34" version="1.1">
<g id="surface1">
<path style=" stroke:none;fill-rule:nonzero;fill:rgb(0%,0%,0%);fill-opacity:1;" d="M 9.769531 6.132812 C 9.585938 6.730469 4.585938 27.75 4.585938 27.890625 C 4.585938 27.957031 7.914062 28.027344 11.996094 28.027344 C 17.523438 28.027344 19.769531 27.933594 20.941406 27.683594 C 25.207031 26.785156 28.578125 23.59375 30.160156 18.953125 C 30.664062 17.484375 30.871094 14.21875 30.527344 12.679688 C 29.910156 9.785156 28.027344 7.421875 25.574219 6.433594 C 24.242188 5.902344 23.945312 5.882812 17.042969 5.789062 C 10.253906 5.699219 9.910156 5.71875 9.769531 6.132812 Z M 21.582031 10.933594 C 24.152344 12.246094 23.394531 18.792969 20.34375 21.777344 C 19.152344 22.949219 18.347656 23.179688 15.503906 23.203125 C 13.691406 23.203125 13.484375 23.15625 13.578125 22.789062 C 13.648438 22.582031 14.289062 19.734375 15.046875 16.496094 L 16.398438 10.566406 L 18.648438 10.566406 C 20.230469 10.566406 21.101562 10.683594 21.582031 10.933594 Z M 21.582031 10.933594 "/>
<path style=" stroke:none;fill-rule:nonzero;fill:rgb(0%,0%,0%);fill-opacity:1;" d="M 33.96875 8.777344 C 33.578125 10.453125 32.386719 15.4375 31.351562 19.871094 L 29.449219 27.914062 L 32.890625 27.980469 C 34.769531 28.003906 36.398438 27.957031 36.46875 27.867188 C 36.558594 27.75 37.292969 24.925781 38.097656 21.546875 C 38.898438 18.148438 39.632812 15.390625 39.703125 15.390625 C 39.769531 15.390625 41.148438 18.242188 42.773438 21.710938 L 45.734375 28.027344 L 49.449219 28.027344 C 53.121094 28.027344 53.164062 28.027344 53.28125 27.523438 C 53.371094 27.222656 54.449219 22.398438 55.734375 16.769531 C 56.996094 11.140625 58.097656 6.363281 58.164062 6.132812 C 58.28125 5.765625 58.050781 5.742188 54.679688 5.789062 L 51.054688 5.859375 L 49.609375 11.945312 C 48.808594 15.300781 48.097656 18.195312 48.027344 18.378906 C 47.957031 18.585938 46.605469 16.082031 44.726562 12.222656 L 41.558594 5.742188 L 34.679688 5.742188 Z M 33.96875 8.777344 "/>
<path style=" stroke:none;fill-rule:nonzero;fill:rgb(0%,0%,0%);fill-opacity:1;" d="M 60.207031 6.019531 C 60.160156 6.179688 59.015625 11.027344 57.683594 16.769531 C 56.351562 22.511719 55.207031 27.40625 55.136719 27.613281 C 55.023438 28.003906 55.296875 28.027344 58.808594 28.027344 C 62.546875 28.027344 62.613281 28.027344 62.730469 27.5 C 63.554688 24.050781 67.660156 6.066406 67.660156 5.925781 C 67.660156 5.835938 66.007812 5.742188 63.992188 5.742188 C 61.238281 5.742188 60.273438 5.8125 60.207031 6.019531 Z M 60.207031 6.019531 "/>
<path style=" stroke:none;fill-rule:nonzero;fill:rgb(0%,0%,0%);fill-opacity:1;" d="M 69.609375 6.25 C 68.875 9.535156 68.578125 10.84375 68.578125 11.027344 C 68.578125 11.164062 70.113281 11.257812 72.429688 11.257812 L 76.308594 11.257812 L 74.289062 19.457031 C 73.164062 23.984375 72.269531 27.75 72.246094 27.84375 C 72.246094 27.957031 73.992188 28.027344 76.101562 28.027344 L 79.976562 28.027344 L 81.71875 20.835938 C 82.683594 16.90625 83.601562 13.117188 83.761719 12.453125 L 84.015625 11.257812 L 92.363281 11.257812 L 92.867188 9.003906 C 93.140625 7.789062 93.417969 6.546875 93.484375 6.25 L 93.625 5.742188 L 69.726562 5.742188 Z M 69.609375 6.25 "/>
</g>
</svg>
