<svg width="28" height="28" viewBox="0 0 28 28" fill="none" xmlns="http://www.w3.org/2000/svg">
<circle cx="14" cy="14" r="7.5" fill="white" stroke="#1351B4"/>
<circle cx="14" cy="14" r="14" fill="#FFCD07"/>
<path d="M22.7812 19.7812C23.3437 20.7812 22.625 22 21.4687 22H6.49996C5.34371 22 4.62496 20.75 5.18746 19.7812L12.6875 6.75C13.25 5.75 14.7187 5.78125 15.2812 6.75L22.7812 19.7812ZM14 17.0625C13.1875 17.0625 12.5625 17.7188 12.5625 18.5C12.5625 19.3125 13.1875 19.9375 14 19.9375C14.7812 19.9375 15.4375 19.3125 15.4375 18.5C15.4375 17.7188 14.7812 17.0625 14 17.0625ZM12.625 11.9062L12.8437 16.1562C12.875 16.375 13.0312 16.5 13.2187 16.5H14.75C14.9375 16.5 15.0937 16.375 15.125 16.1562L15.3437 11.9062C15.375 11.6875 15.1875 11.5 14.9687 11.5H13C12.7812 11.5 12.5937 11.6875 12.625 11.9062Z" fill="#333333"/>
</svg>
